<svg xmlns="http://www.w3.org/2000/svg" viewBox="0 0 64 64">
  <defs>
    <linearGradient id="g" x1="0" y1="0" x2="1" y2="1">
      <stop offset="0" stop-color="#5b5bf7" />
      <stop offset="1" stop-color="#ff7a59" />
    </linearGradient>
  </defs>
  <rect width="64" height="64" rx="16" fill="url(#g)" />
  <path
    fill="#fff"
    d="M32 14c-7.2 0-13 5.4-13 12 0 3.9 2 7.3 5.2 9.5.5.4.8.9.8 1.5v2.4c0 1.1.9 2 2 2h10c1.1 0 2-.9 2-2v-2.4c0-.6.3-1.1.8-1.5C43 33.3 45 29.9 45 26c0-6.6-5.8-12-13-12z"
  />
  <rect x="27" y="44" width="10" height="4" rx="2" fill="#fff" />
  <rect x="28.5" y="50" width="7" height="3.5" rx="1.75" fill="#fff" />
</svg>
